<mxfile host="Electron" agent="Mozilla/5.0 (Macintosh; Intel Mac OS X 10_15_7) AppleWebKit/537.36 (KHTML, like Gecko) draw.io/25.0.2 Chrome/128.0.6613.186 Electron/32.2.5 Safari/537.36" version="25.0.2">
  <diagram name="Page-1" id="vt-dQdubfXd3lH-Cyy_y">
    <mxGraphModel dx="508" dy="483" grid="1" gridSize="10" guides="1" tooltips="1" connect="1" arrows="1" fold="1" page="1" pageScale="1" pageWidth="850" pageHeight="1100" math="0" shadow="0">
      <root>
        <mxCell id="0" />
        <mxCell id="1" parent="0" />
        <mxCell id="5sLaOHyuS5Z61Rs6dvBQ-19" value="" style="pointerEvents=1;verticalLabelPosition=bottom;shadow=0;dashed=0;align=center;html=1;verticalAlign=top;shape=mxgraph.electrical.resistors.resistor_1;" vertex="1" parent="1">
          <mxGeometry x="300" y="587.8" width="100" height="20" as="geometry" />
        </mxCell>
        <mxCell id="5sLaOHyuS5Z61Rs6dvBQ-20" value="" style="pointerEvents=1;verticalLabelPosition=bottom;shadow=0;dashed=0;align=center;html=1;verticalAlign=top;shape=mxgraph.electrical.resistors.resistor_1;" vertex="1" parent="1">
          <mxGeometry x="485" y="492.5" width="100" height="20" as="geometry" />
        </mxCell>
        <mxCell id="5sLaOHyuS5Z61Rs6dvBQ-26" value="" style="verticalLabelPosition=bottom;shadow=0;dashed=0;align=center;html=1;verticalAlign=top;shape=mxgraph.electrical.transistors.npn_transistor_1;rotation=-90;" vertex="1" parent="1">
          <mxGeometry x="365" y="480" width="70" height="70" as="geometry" />
        </mxCell>
        <mxCell id="5sLaOHyuS5Z61Rs6dvBQ-27" value="" style="verticalLabelPosition=bottom;shadow=0;dashed=0;align=center;html=1;verticalAlign=top;shape=mxgraph.electrical.transistors.npn_transistor_1;rotation=90;flipV=1;" vertex="1" parent="1">
          <mxGeometry x="450" y="550" width="70" height="70" as="geometry" />
        </mxCell>
        <mxCell id="5sLaOHyuS5Z61Rs6dvBQ-29" value="" style="endArrow=oval;html=1;rounded=0;exitX=0;exitY=0.5;exitDx=0;exitDy=0;exitPerimeter=0;endFill=1;endSize=3;startSize=3;" edge="1" parent="1" source="5sLaOHyuS5Z61Rs6dvBQ-27">
          <mxGeometry width="50" height="50" relative="1" as="geometry">
            <mxPoint x="380" y="580" as="sourcePoint" />
            <mxPoint x="485" y="503" as="targetPoint" />
          </mxGeometry>
        </mxCell>
        <mxCell id="5sLaOHyuS5Z61Rs6dvBQ-30" value="" style="endArrow=none;html=1;rounded=0;entryX=0;entryY=0.5;entryDx=0;entryDy=0;entryPerimeter=0;exitX=0.7;exitY=1;exitDx=0;exitDy=0;exitPerimeter=0;" edge="1" parent="1" source="5sLaOHyuS5Z61Rs6dvBQ-26" target="5sLaOHyuS5Z61Rs6dvBQ-20">
          <mxGeometry width="50" height="50" relative="1" as="geometry">
            <mxPoint x="380" y="580" as="sourcePoint" />
            <mxPoint x="430" y="530" as="targetPoint" />
          </mxGeometry>
        </mxCell>
        <mxCell id="5sLaOHyuS5Z61Rs6dvBQ-31" value="" style="endArrow=none;html=1;rounded=0;entryX=0;entryY=0.5;entryDx=0;entryDy=0;entryPerimeter=0;exitX=1;exitY=0.5;exitDx=0;exitDy=0;exitPerimeter=0;endFill=0;startArrow=oval;startFill=1;startSize=3;" edge="1" parent="1" source="5sLaOHyuS5Z61Rs6dvBQ-19" target="5sLaOHyuS5Z61Rs6dvBQ-26">
          <mxGeometry width="50" height="50" relative="1" as="geometry">
            <mxPoint x="380" y="580" as="sourcePoint" />
            <mxPoint x="430" y="530" as="targetPoint" />
          </mxGeometry>
        </mxCell>
        <mxCell id="5sLaOHyuS5Z61Rs6dvBQ-32" value="" style="endArrow=none;html=1;rounded=0;entryX=1;entryY=0.5;entryDx=0;entryDy=0;entryPerimeter=0;exitX=0.7;exitY=0;exitDx=0;exitDy=0;exitPerimeter=0;" edge="1" parent="1" source="5sLaOHyuS5Z61Rs6dvBQ-27" target="5sLaOHyuS5Z61Rs6dvBQ-19">
          <mxGeometry width="50" height="50" relative="1" as="geometry">
            <mxPoint x="410" y="608" as="sourcePoint" />
            <mxPoint x="410" y="557" as="targetPoint" />
          </mxGeometry>
        </mxCell>
        <mxCell id="5sLaOHyuS5Z61Rs6dvBQ-33" value="" style="endArrow=none;html=1;rounded=0;entryX=0.7;entryY=0;entryDx=0;entryDy=0;entryPerimeter=0;" edge="1" parent="1" target="5sLaOHyuS5Z61Rs6dvBQ-26">
          <mxGeometry width="50" height="50" relative="1" as="geometry">
            <mxPoint x="300" y="502" as="sourcePoint" />
            <mxPoint x="430" y="530" as="targetPoint" />
          </mxGeometry>
        </mxCell>
        <mxCell id="5sLaOHyuS5Z61Rs6dvBQ-34" value="" style="endArrow=oval;html=1;rounded=0;entryX=0.7;entryY=0;entryDx=0;entryDy=0;entryPerimeter=0;endFill=1;startSize=4;endSize=3;" edge="1" parent="1">
          <mxGeometry width="50" height="50" relative="1" as="geometry">
            <mxPoint x="520" y="597.63" as="sourcePoint" />
            <mxPoint x="585" y="597.63" as="targetPoint" />
          </mxGeometry>
        </mxCell>
        <mxCell id="5sLaOHyuS5Z61Rs6dvBQ-35" value="" style="endArrow=oval;html=1;rounded=0;entryX=1;entryY=0.5;entryDx=0;entryDy=0;entryPerimeter=0;startArrow=none;startFill=0;endFill=1;endSize=3;startSize=3;" edge="1" parent="1" target="5sLaOHyuS5Z61Rs6dvBQ-20">
          <mxGeometry width="50" height="50" relative="1" as="geometry">
            <mxPoint x="585" y="630" as="sourcePoint" />
            <mxPoint x="595" y="607.63" as="targetPoint" />
          </mxGeometry>
        </mxCell>
      </root>
    </mxGraphModel>
  </diagram>
</mxfile>
